%TF.GenerationSoftware,KiCad,Pcbnew,8.0.7*%
%TF.CreationDate,2025-01-02T16:21:02-05:00*%
%TF.ProjectId,panel1,70616e65-6c31-42e6-9b69-6361645f7063,rev?*%
%TF.SameCoordinates,Original*%
%TF.FileFunction,Profile,NP*%
%FSLAX46Y46*%
G04 Gerber Fmt 4.6, Leading zero omitted, Abs format (unit mm)*
G04 Created by KiCad (PCBNEW 8.0.7) date 2025-01-02 16:21:02*
%MOMM*%
%LPD*%
G01*
G04 APERTURE LIST*
%TA.AperFunction,Profile*%
%ADD10C,0.100000*%
%TD*%
G04 APERTURE END LIST*
D10*
X144751497Y-78799246D02*
G75*
G02*
X142937271Y-76985099I400003J2214246D01*
G01*
X148376788Y-76185087D02*
X147365656Y-76185087D01*
X145551497Y-79810378D02*
X145551497Y-78799246D01*
X146883548Y-73835087D02*
G75*
G02*
X148376798Y-76185086I-1732048J-2750013D01*
G01*
X148376788Y-76985087D02*
G75*
G02*
X145551498Y-79810387I-3225288J399987D01*
G01*
X146565710Y-74835087D02*
X143737283Y-74835087D01*
X180559225Y-65226767D02*
G75*
G02*
X182059233Y-66726767I-25J-1500033D01*
G01*
X141926206Y-76185087D02*
G75*
G02*
X143419436Y-73835071I3225194J-399913D01*
G01*
X146565710Y-74835087D02*
G75*
G02*
X147365664Y-76185085I-1414210J-1750013D01*
G01*
X144751497Y-79810378D02*
G75*
G02*
X141926220Y-76985085I400003J3225278D01*
G01*
X122059225Y-66726767D02*
G75*
G02*
X123559225Y-65226825I1499975J-33D01*
G01*
X142937338Y-76185087D02*
X141926206Y-76185087D01*
X123559225Y-87926767D02*
G75*
G02*
X122059233Y-86426767I-25J1499967D01*
G01*
X182059225Y-86426767D02*
X182059225Y-66726767D01*
X163344848Y-80710087D02*
X163344848Y-72460087D01*
X141926206Y-76985087D02*
X142937338Y-76985087D01*
X180559225Y-65226767D02*
X123559225Y-65226767D01*
X147365656Y-76985087D02*
G75*
G02*
X145551498Y-78799254I-2214256J400087D01*
G01*
X123559225Y-87926767D02*
X180559225Y-87926767D01*
X144751497Y-78799246D02*
X144751497Y-79810378D01*
X147365656Y-76985087D02*
X148376788Y-76985087D01*
X173354848Y-72460087D02*
X173354848Y-80710087D01*
X173354848Y-80710087D02*
X163344848Y-80710087D01*
X182059225Y-86426767D02*
G75*
G02*
X180559225Y-87926825I-1500025J-33D01*
G01*
X163344848Y-72460087D02*
X173354848Y-72460087D01*
X143419446Y-73835087D02*
X146883548Y-73835087D01*
X122059225Y-66726767D02*
X122059225Y-86426767D01*
X142937338Y-76185087D02*
G75*
G02*
X143737272Y-74835073I2214062J-399913D01*
G01*
M02*
