%TF.GenerationSoftware,KiCad,Pcbnew,9.0.2*%
%TF.CreationDate,2025-06-15T17:25:12-04:00*%
%TF.ProjectId,panel1,70616e65-6c31-42e6-9b69-6361645f7063,rev?*%
%TF.SameCoordinates,Original*%
%TF.FileFunction,Legend,Top*%
%TF.FilePolarity,Positive*%
%FSLAX46Y46*%
G04 Gerber Fmt 4.6, Leading zero omitted, Abs format (unit mm)*
G04 Created by KiCad (PCBNEW 9.0.2) date 2025-06-15 17:25:12*
%MOMM*%
%LPD*%
G01*
G04 APERTURE LIST*
%ADD10C,0.130000*%
%ADD11C,0.150000*%
G04 APERTURE END LIST*
D10*
X163485562Y-82736364D02*
X163056990Y-82736364D01*
X163056990Y-82736364D02*
X163014133Y-83164935D01*
X163014133Y-83164935D02*
X163056990Y-83122078D01*
X163056990Y-83122078D02*
X163142705Y-83079221D01*
X163142705Y-83079221D02*
X163356990Y-83079221D01*
X163356990Y-83079221D02*
X163442705Y-83122078D01*
X163442705Y-83122078D02*
X163485562Y-83164935D01*
X163485562Y-83164935D02*
X163528419Y-83250649D01*
X163528419Y-83250649D02*
X163528419Y-83464935D01*
X163528419Y-83464935D02*
X163485562Y-83550649D01*
X163485562Y-83550649D02*
X163442705Y-83593507D01*
X163442705Y-83593507D02*
X163356990Y-83636364D01*
X163356990Y-83636364D02*
X163142705Y-83636364D01*
X163142705Y-83636364D02*
X163056990Y-83593507D01*
X163056990Y-83593507D02*
X163014133Y-83550649D01*
X163914133Y-83293507D02*
X164599848Y-83293507D01*
X164985562Y-82822078D02*
X165028419Y-82779221D01*
X165028419Y-82779221D02*
X165114134Y-82736364D01*
X165114134Y-82736364D02*
X165328419Y-82736364D01*
X165328419Y-82736364D02*
X165414134Y-82779221D01*
X165414134Y-82779221D02*
X165456991Y-82822078D01*
X165456991Y-82822078D02*
X165499848Y-82907792D01*
X165499848Y-82907792D02*
X165499848Y-82993507D01*
X165499848Y-82993507D02*
X165456991Y-83122078D01*
X165456991Y-83122078D02*
X164942705Y-83636364D01*
X164942705Y-83636364D02*
X165499848Y-83636364D01*
X166271277Y-83036364D02*
X166271277Y-83636364D01*
X166056991Y-82693507D02*
X165842705Y-83336364D01*
X165842705Y-83336364D02*
X166399848Y-83336364D01*
X166614134Y-82736364D02*
X166914134Y-83636364D01*
X166914134Y-83636364D02*
X167214134Y-82736364D01*
X167514134Y-83636364D02*
X167514134Y-82736364D01*
X167514134Y-82736364D02*
X167728420Y-82736364D01*
X167728420Y-82736364D02*
X167856991Y-82779221D01*
X167856991Y-82779221D02*
X167942706Y-82864935D01*
X167942706Y-82864935D02*
X167985563Y-82950649D01*
X167985563Y-82950649D02*
X168028420Y-83122078D01*
X168028420Y-83122078D02*
X168028420Y-83250649D01*
X168028420Y-83250649D02*
X167985563Y-83422078D01*
X167985563Y-83422078D02*
X167942706Y-83507792D01*
X167942706Y-83507792D02*
X167856991Y-83593507D01*
X167856991Y-83593507D02*
X167728420Y-83636364D01*
X167728420Y-83636364D02*
X167514134Y-83636364D01*
X168928420Y-83550649D02*
X168885563Y-83593507D01*
X168885563Y-83593507D02*
X168756991Y-83636364D01*
X168756991Y-83636364D02*
X168671277Y-83636364D01*
X168671277Y-83636364D02*
X168542706Y-83593507D01*
X168542706Y-83593507D02*
X168456991Y-83507792D01*
X168456991Y-83507792D02*
X168414134Y-83422078D01*
X168414134Y-83422078D02*
X168371277Y-83250649D01*
X168371277Y-83250649D02*
X168371277Y-83122078D01*
X168371277Y-83122078D02*
X168414134Y-82950649D01*
X168414134Y-82950649D02*
X168456991Y-82864935D01*
X168456991Y-82864935D02*
X168542706Y-82779221D01*
X168542706Y-82779221D02*
X168671277Y-82736364D01*
X168671277Y-82736364D02*
X168756991Y-82736364D01*
X168756991Y-82736364D02*
X168885563Y-82779221D01*
X168885563Y-82779221D02*
X168928420Y-82822078D01*
X169956991Y-83593507D02*
X170042705Y-83636364D01*
X170042705Y-83636364D02*
X170214134Y-83636364D01*
X170214134Y-83636364D02*
X170299848Y-83593507D01*
X170299848Y-83593507D02*
X170342705Y-83507792D01*
X170342705Y-83507792D02*
X170342705Y-83464935D01*
X170342705Y-83464935D02*
X170299848Y-83379221D01*
X170299848Y-83379221D02*
X170214134Y-83336364D01*
X170214134Y-83336364D02*
X170085563Y-83336364D01*
X170085563Y-83336364D02*
X169999848Y-83293507D01*
X169999848Y-83293507D02*
X169956991Y-83207792D01*
X169956991Y-83207792D02*
X169956991Y-83164935D01*
X169956991Y-83164935D02*
X169999848Y-83079221D01*
X169999848Y-83079221D02*
X170085563Y-83036364D01*
X170085563Y-83036364D02*
X170214134Y-83036364D01*
X170214134Y-83036364D02*
X170299848Y-83079221D01*
X170728419Y-83636364D02*
X170728419Y-83036364D01*
X170728419Y-82736364D02*
X170685562Y-82779221D01*
X170685562Y-82779221D02*
X170728419Y-82822078D01*
X170728419Y-82822078D02*
X170771276Y-82779221D01*
X170771276Y-82779221D02*
X170728419Y-82736364D01*
X170728419Y-82736364D02*
X170728419Y-82822078D01*
X171542705Y-83036364D02*
X171542705Y-83764935D01*
X171542705Y-83764935D02*
X171499847Y-83850649D01*
X171499847Y-83850649D02*
X171456990Y-83893507D01*
X171456990Y-83893507D02*
X171371276Y-83936364D01*
X171371276Y-83936364D02*
X171242705Y-83936364D01*
X171242705Y-83936364D02*
X171156990Y-83893507D01*
X171542705Y-83593507D02*
X171456990Y-83636364D01*
X171456990Y-83636364D02*
X171285562Y-83636364D01*
X171285562Y-83636364D02*
X171199847Y-83593507D01*
X171199847Y-83593507D02*
X171156990Y-83550649D01*
X171156990Y-83550649D02*
X171114133Y-83464935D01*
X171114133Y-83464935D02*
X171114133Y-83207792D01*
X171114133Y-83207792D02*
X171156990Y-83122078D01*
X171156990Y-83122078D02*
X171199847Y-83079221D01*
X171199847Y-83079221D02*
X171285562Y-83036364D01*
X171285562Y-83036364D02*
X171456990Y-83036364D01*
X171456990Y-83036364D02*
X171542705Y-83079221D01*
X171971276Y-83036364D02*
X171971276Y-83636364D01*
X171971276Y-83122078D02*
X172014133Y-83079221D01*
X172014133Y-83079221D02*
X172099848Y-83036364D01*
X172099848Y-83036364D02*
X172228419Y-83036364D01*
X172228419Y-83036364D02*
X172314133Y-83079221D01*
X172314133Y-83079221D02*
X172356991Y-83164935D01*
X172356991Y-83164935D02*
X172356991Y-83636364D01*
X173171277Y-83636364D02*
X173171277Y-83164935D01*
X173171277Y-83164935D02*
X173128419Y-83079221D01*
X173128419Y-83079221D02*
X173042705Y-83036364D01*
X173042705Y-83036364D02*
X172871277Y-83036364D01*
X172871277Y-83036364D02*
X172785562Y-83079221D01*
X173171277Y-83593507D02*
X173085562Y-83636364D01*
X173085562Y-83636364D02*
X172871277Y-83636364D01*
X172871277Y-83636364D02*
X172785562Y-83593507D01*
X172785562Y-83593507D02*
X172742705Y-83507792D01*
X172742705Y-83507792D02*
X172742705Y-83422078D01*
X172742705Y-83422078D02*
X172785562Y-83336364D01*
X172785562Y-83336364D02*
X172871277Y-83293507D01*
X172871277Y-83293507D02*
X173085562Y-83293507D01*
X173085562Y-83293507D02*
X173171277Y-83250649D01*
X173728420Y-83636364D02*
X173642705Y-83593507D01*
X173642705Y-83593507D02*
X173599848Y-83507792D01*
X173599848Y-83507792D02*
X173599848Y-82736364D01*
D11*
G36*
X164320434Y-69611150D02*
G01*
X164360365Y-69651081D01*
X164404147Y-69738644D01*
X164404147Y-70103082D01*
X163925575Y-70103082D01*
X163925575Y-69738644D01*
X163969356Y-69651081D01*
X164009288Y-69611150D01*
X164096852Y-69567368D01*
X164232870Y-69567368D01*
X164320434Y-69611150D01*
G37*
G36*
X172048162Y-69611150D02*
G01*
X172088093Y-69651081D01*
X172131875Y-69738644D01*
X172131875Y-70103082D01*
X171653303Y-70103082D01*
X171653303Y-69738644D01*
X171697084Y-69651081D01*
X171737016Y-69611150D01*
X171824580Y-69567368D01*
X171960598Y-69567368D01*
X172048162Y-69611150D01*
G37*
G36*
X172986636Y-71470689D02*
G01*
X163642242Y-71470689D01*
X163642242Y-70578083D01*
X163775575Y-70578083D01*
X163775575Y-71263797D01*
X163777016Y-71278429D01*
X163788215Y-71305465D01*
X163808907Y-71326157D01*
X163835943Y-71337356D01*
X163865207Y-71337356D01*
X163892243Y-71326157D01*
X163912935Y-71305465D01*
X163924134Y-71278429D01*
X163925575Y-71263797D01*
X163925575Y-70995940D01*
X165050575Y-70995940D01*
X165065207Y-70994499D01*
X165092243Y-70983300D01*
X165112935Y-70962608D01*
X165124134Y-70935572D01*
X165124134Y-70906308D01*
X165112935Y-70879272D01*
X165092243Y-70858580D01*
X165065207Y-70847381D01*
X165050575Y-70845940D01*
X163925575Y-70845940D01*
X163925575Y-70578083D01*
X171503303Y-70578083D01*
X171503303Y-71263797D01*
X171504744Y-71278429D01*
X171515943Y-71305465D01*
X171536635Y-71326157D01*
X171563671Y-71337356D01*
X171592935Y-71337356D01*
X171619971Y-71326157D01*
X171640663Y-71305465D01*
X171651862Y-71278429D01*
X171653303Y-71263797D01*
X171653303Y-70995940D01*
X172778303Y-70995940D01*
X172792935Y-70994499D01*
X172819971Y-70983300D01*
X172840663Y-70962608D01*
X172851862Y-70935572D01*
X172851862Y-70906308D01*
X172840663Y-70879272D01*
X172819971Y-70858580D01*
X172792935Y-70847381D01*
X172778303Y-70845940D01*
X171653303Y-70845940D01*
X171653303Y-70578083D01*
X171651862Y-70563451D01*
X171640663Y-70536415D01*
X171619971Y-70515723D01*
X171592935Y-70504524D01*
X171563671Y-70504524D01*
X171536635Y-70515723D01*
X171515943Y-70536415D01*
X171504744Y-70563451D01*
X171503303Y-70578083D01*
X163925575Y-70578083D01*
X163924134Y-70563451D01*
X163912935Y-70536415D01*
X163892243Y-70515723D01*
X163865207Y-70504524D01*
X163835943Y-70504524D01*
X163808907Y-70515723D01*
X163788215Y-70536415D01*
X163777016Y-70563451D01*
X163775575Y-70578083D01*
X163642242Y-70578083D01*
X163642242Y-69720939D01*
X163775575Y-69720939D01*
X163775575Y-70178082D01*
X163777016Y-70192714D01*
X163788215Y-70219750D01*
X163808907Y-70240442D01*
X163835943Y-70251641D01*
X163850575Y-70253082D01*
X165050575Y-70253082D01*
X165065207Y-70251641D01*
X165092243Y-70240442D01*
X165112935Y-70219750D01*
X165124134Y-70192714D01*
X165124134Y-70163450D01*
X165112935Y-70136414D01*
X165092243Y-70115722D01*
X165065207Y-70104523D01*
X165050575Y-70103082D01*
X164554147Y-70103082D01*
X164554147Y-69931416D01*
X164854829Y-69720939D01*
X171503303Y-69720939D01*
X171503303Y-70178082D01*
X171504744Y-70192714D01*
X171515943Y-70219750D01*
X171536635Y-70240442D01*
X171563671Y-70251641D01*
X171578303Y-70253082D01*
X172778303Y-70253082D01*
X172792935Y-70251641D01*
X172819971Y-70240442D01*
X172840663Y-70219750D01*
X172851862Y-70192714D01*
X172851862Y-70163450D01*
X172840663Y-70136414D01*
X172819971Y-70115722D01*
X172792935Y-70104523D01*
X172778303Y-70103082D01*
X172281875Y-70103082D01*
X172281875Y-69931416D01*
X172821313Y-69553810D01*
X172832473Y-69544239D01*
X172848200Y-69519560D01*
X172853285Y-69490743D01*
X172846956Y-69462172D01*
X172830174Y-69438198D01*
X172805495Y-69422471D01*
X172776678Y-69417386D01*
X172748107Y-69423715D01*
X172735293Y-69430926D01*
X172281875Y-69748318D01*
X172281875Y-69720939D01*
X172280434Y-69706307D01*
X172279402Y-69703817D01*
X172279212Y-69701130D01*
X172273957Y-69687398D01*
X172216814Y-69573113D01*
X172212850Y-69566816D01*
X172212092Y-69564986D01*
X172210400Y-69562924D01*
X172208981Y-69560670D01*
X172207485Y-69559373D01*
X172202765Y-69553621D01*
X172145622Y-69496478D01*
X172139870Y-69491757D01*
X172138573Y-69490262D01*
X172136318Y-69488842D01*
X172134257Y-69487151D01*
X172132426Y-69486392D01*
X172126130Y-69482429D01*
X172011844Y-69425286D01*
X171998112Y-69420031D01*
X171995424Y-69419840D01*
X171992935Y-69418809D01*
X171978303Y-69417368D01*
X171806875Y-69417368D01*
X171792243Y-69418809D01*
X171789753Y-69419840D01*
X171787066Y-69420031D01*
X171773334Y-69425286D01*
X171659048Y-69482429D01*
X171652748Y-69486393D01*
X171650921Y-69487151D01*
X171648864Y-69488839D01*
X171646605Y-69490261D01*
X171645305Y-69491759D01*
X171639556Y-69496478D01*
X171582413Y-69553621D01*
X171577692Y-69559372D01*
X171576197Y-69560670D01*
X171574777Y-69562924D01*
X171573086Y-69564986D01*
X171572327Y-69566816D01*
X171568364Y-69573113D01*
X171511221Y-69687398D01*
X171505966Y-69701129D01*
X171505774Y-69703818D01*
X171504744Y-69706307D01*
X171503303Y-69720939D01*
X164854829Y-69720939D01*
X165093585Y-69553810D01*
X165104745Y-69544239D01*
X165120472Y-69519560D01*
X165125557Y-69490743D01*
X165119228Y-69462172D01*
X165102446Y-69438198D01*
X165077767Y-69422471D01*
X165048950Y-69417386D01*
X165020379Y-69423715D01*
X165007565Y-69430926D01*
X164554147Y-69748318D01*
X164554147Y-69720939D01*
X164552706Y-69706307D01*
X164551674Y-69703817D01*
X164551484Y-69701130D01*
X164546229Y-69687398D01*
X164489086Y-69573113D01*
X164485122Y-69566816D01*
X164484364Y-69564986D01*
X164482672Y-69562924D01*
X164481253Y-69560670D01*
X164479757Y-69559373D01*
X164475037Y-69553621D01*
X164417894Y-69496478D01*
X164412142Y-69491757D01*
X164410845Y-69490262D01*
X164408590Y-69488842D01*
X164406529Y-69487151D01*
X164404698Y-69486392D01*
X164398402Y-69482429D01*
X164284116Y-69425286D01*
X164270384Y-69420031D01*
X164267696Y-69419840D01*
X164265207Y-69418809D01*
X164250575Y-69417368D01*
X164079147Y-69417368D01*
X164064515Y-69418809D01*
X164062025Y-69419840D01*
X164059338Y-69420031D01*
X164045606Y-69425286D01*
X163931320Y-69482429D01*
X163925020Y-69486393D01*
X163923193Y-69487151D01*
X163921136Y-69488839D01*
X163918877Y-69490261D01*
X163917577Y-69491759D01*
X163911828Y-69496478D01*
X163854685Y-69553621D01*
X163849964Y-69559372D01*
X163848469Y-69560670D01*
X163847049Y-69562924D01*
X163845358Y-69564986D01*
X163844599Y-69566816D01*
X163840636Y-69573113D01*
X163783493Y-69687398D01*
X163778238Y-69701129D01*
X163778046Y-69703818D01*
X163777016Y-69706307D01*
X163775575Y-69720939D01*
X163642242Y-69720939D01*
X163642242Y-68963450D01*
X163777016Y-68963450D01*
X163777016Y-68992714D01*
X163788215Y-69019750D01*
X163808907Y-69040442D01*
X163835943Y-69051641D01*
X163850575Y-69053082D01*
X165050575Y-69053082D01*
X165065207Y-69051641D01*
X165092243Y-69040442D01*
X165112935Y-69019750D01*
X165124134Y-68992714D01*
X165124134Y-68963450D01*
X171504744Y-68963450D01*
X171504744Y-68992714D01*
X171515943Y-69019750D01*
X171536635Y-69040442D01*
X171563671Y-69051641D01*
X171578303Y-69053082D01*
X172778303Y-69053082D01*
X172792935Y-69051641D01*
X172819971Y-69040442D01*
X172840663Y-69019750D01*
X172851862Y-68992714D01*
X172851862Y-68963450D01*
X172840663Y-68936414D01*
X172819971Y-68915722D01*
X172792935Y-68904523D01*
X172778303Y-68903082D01*
X171578303Y-68903082D01*
X171563671Y-68904523D01*
X171536635Y-68915722D01*
X171515943Y-68936414D01*
X171504744Y-68963450D01*
X165124134Y-68963450D01*
X165112935Y-68936414D01*
X165092243Y-68915722D01*
X165065207Y-68904523D01*
X165050575Y-68903082D01*
X163850575Y-68903082D01*
X163835943Y-68904523D01*
X163808907Y-68915722D01*
X163788215Y-68936414D01*
X163777016Y-68963450D01*
X163642242Y-68963450D01*
X163642242Y-67892368D01*
X163775575Y-67892368D01*
X163775575Y-68063796D01*
X163776304Y-68071201D01*
X163776164Y-68073176D01*
X163776754Y-68075773D01*
X163777016Y-68078428D01*
X163777774Y-68080259D01*
X163779424Y-68087513D01*
X163836567Y-68258942D01*
X163842561Y-68272368D01*
X163844327Y-68274404D01*
X163845358Y-68276893D01*
X163854685Y-68288258D01*
X163968971Y-68402543D01*
X163974720Y-68407261D01*
X163976020Y-68408760D01*
X163978278Y-68410181D01*
X163980337Y-68411871D01*
X163982166Y-68412628D01*
X163988463Y-68416592D01*
X164102749Y-68473735D01*
X164103818Y-68474144D01*
X164104254Y-68474467D01*
X164110399Y-68476662D01*
X164116481Y-68478990D01*
X164117020Y-68479028D01*
X164118100Y-68479414D01*
X164346671Y-68536557D01*
X164349208Y-68536932D01*
X164350229Y-68537355D01*
X164355731Y-68537896D01*
X164361216Y-68538708D01*
X164362311Y-68538544D01*
X164364861Y-68538796D01*
X164536290Y-68538796D01*
X164538843Y-68538544D01*
X164539936Y-68538707D01*
X164545409Y-68537897D01*
X164550922Y-68537355D01*
X164551943Y-68536932D01*
X164554480Y-68536557D01*
X164783052Y-68479414D01*
X164784131Y-68479028D01*
X164784670Y-68478990D01*
X164790745Y-68476665D01*
X164796897Y-68474467D01*
X164797332Y-68474144D01*
X164798402Y-68473735D01*
X164912688Y-68416592D01*
X164918982Y-68412629D01*
X164920814Y-68411871D01*
X164922876Y-68410177D01*
X164925131Y-68408759D01*
X164926427Y-68407263D01*
X164932180Y-68402543D01*
X165046466Y-68288258D01*
X165055793Y-68276893D01*
X165056824Y-68274402D01*
X165058590Y-68272367D01*
X165064584Y-68258942D01*
X165121726Y-68087512D01*
X165123375Y-68080260D01*
X165124134Y-68078428D01*
X165124395Y-68075772D01*
X165124986Y-68073176D01*
X165124845Y-68071201D01*
X165125575Y-68063796D01*
X165125575Y-67949510D01*
X165124845Y-67942104D01*
X165124986Y-67940130D01*
X165124395Y-67937532D01*
X165124134Y-67934878D01*
X165123375Y-67933046D01*
X165121726Y-67925793D01*
X165110584Y-67892368D01*
X171503303Y-67892368D01*
X171503303Y-68063796D01*
X171504032Y-68071201D01*
X171503892Y-68073176D01*
X171504482Y-68075773D01*
X171504744Y-68078428D01*
X171505502Y-68080259D01*
X171507152Y-68087513D01*
X171564295Y-68258942D01*
X171570289Y-68272368D01*
X171572055Y-68274404D01*
X171573086Y-68276893D01*
X171582413Y-68288258D01*
X171696699Y-68402543D01*
X171702448Y-68407261D01*
X171703748Y-68408760D01*
X171706006Y-68410181D01*
X171708065Y-68411871D01*
X171709894Y-68412628D01*
X171716191Y-68416592D01*
X171830477Y-68473735D01*
X171831546Y-68474144D01*
X171831982Y-68474467D01*
X171838127Y-68476662D01*
X171844209Y-68478990D01*
X171844748Y-68479028D01*
X171845828Y-68479414D01*
X172074399Y-68536557D01*
X172076936Y-68536932D01*
X172077957Y-68537355D01*
X172083459Y-68537896D01*
X172088944Y-68538708D01*
X172090039Y-68538544D01*
X172092589Y-68538796D01*
X172264018Y-68538796D01*
X172266571Y-68538544D01*
X172267664Y-68538707D01*
X172273137Y-68537897D01*
X172278650Y-68537355D01*
X172279671Y-68536932D01*
X172282208Y-68536557D01*
X172510780Y-68479414D01*
X172511859Y-68479028D01*
X172512398Y-68478990D01*
X172518473Y-68476665D01*
X172524625Y-68474467D01*
X172525060Y-68474144D01*
X172526130Y-68473735D01*
X172640416Y-68416592D01*
X172646710Y-68412629D01*
X172648542Y-68411871D01*
X172650604Y-68410177D01*
X172652859Y-68408759D01*
X172654155Y-68407263D01*
X172659908Y-68402543D01*
X172774194Y-68288258D01*
X172783521Y-68276893D01*
X172784552Y-68274402D01*
X172786318Y-68272367D01*
X172792312Y-68258942D01*
X172849454Y-68087512D01*
X172851103Y-68080260D01*
X172851862Y-68078428D01*
X172852123Y-68075772D01*
X172852714Y-68073176D01*
X172852573Y-68071201D01*
X172853303Y-68063796D01*
X172853303Y-67949510D01*
X172852573Y-67942104D01*
X172852714Y-67940130D01*
X172852123Y-67937532D01*
X172851862Y-67934878D01*
X172851103Y-67933046D01*
X172849454Y-67925793D01*
X172792312Y-67754365D01*
X172786318Y-67740940D01*
X172784552Y-67738904D01*
X172783521Y-67736414D01*
X172774194Y-67725049D01*
X172717051Y-67667906D01*
X172705686Y-67658579D01*
X172678650Y-67647380D01*
X172664018Y-67645939D01*
X172264018Y-67645939D01*
X172249386Y-67647380D01*
X172222350Y-67658579D01*
X172201658Y-67679271D01*
X172190459Y-67706307D01*
X172189018Y-67720939D01*
X172189018Y-67949510D01*
X172190459Y-67964142D01*
X172201658Y-67991178D01*
X172222350Y-68011870D01*
X172249386Y-68023069D01*
X172278650Y-68023069D01*
X172305686Y-68011870D01*
X172326378Y-67991178D01*
X172337577Y-67964142D01*
X172339018Y-67949510D01*
X172339018Y-67795939D01*
X172632952Y-67795939D01*
X172655608Y-67818595D01*
X172703303Y-67961679D01*
X172703303Y-68051626D01*
X172655608Y-68194710D01*
X172562448Y-68287870D01*
X172466412Y-68335888D01*
X172254784Y-68388796D01*
X172101824Y-68388796D01*
X171890194Y-68335888D01*
X171794158Y-68287870D01*
X171700997Y-68194710D01*
X171653303Y-68051626D01*
X171653303Y-67910073D01*
X171702528Y-67811623D01*
X171707783Y-67797891D01*
X171709857Y-67768701D01*
X171700603Y-67740940D01*
X171681430Y-67718832D01*
X171655255Y-67705745D01*
X171626065Y-67703671D01*
X171598304Y-67712924D01*
X171576197Y-67732098D01*
X171568364Y-67744541D01*
X171511221Y-67858827D01*
X171505966Y-67872559D01*
X171505775Y-67875246D01*
X171504744Y-67877736D01*
X171503303Y-67892368D01*
X165110584Y-67892368D01*
X165064584Y-67754365D01*
X165058590Y-67740940D01*
X165056824Y-67738904D01*
X165055793Y-67736414D01*
X165046466Y-67725049D01*
X164989323Y-67667906D01*
X164977958Y-67658579D01*
X164950922Y-67647380D01*
X164936290Y-67645939D01*
X164536290Y-67645939D01*
X164521658Y-67647380D01*
X164494622Y-67658579D01*
X164473930Y-67679271D01*
X164462731Y-67706307D01*
X164461290Y-67720939D01*
X164461290Y-67949510D01*
X164462731Y-67964142D01*
X164473930Y-67991178D01*
X164494622Y-68011870D01*
X164521658Y-68023069D01*
X164550922Y-68023069D01*
X164577958Y-68011870D01*
X164598650Y-67991178D01*
X164609849Y-67964142D01*
X164611290Y-67949510D01*
X164611290Y-67795939D01*
X164905224Y-67795939D01*
X164927880Y-67818595D01*
X164975575Y-67961679D01*
X164975575Y-68051626D01*
X164927880Y-68194710D01*
X164834720Y-68287870D01*
X164738684Y-68335888D01*
X164527056Y-68388796D01*
X164374096Y-68388796D01*
X164162466Y-68335888D01*
X164066430Y-68287870D01*
X163973269Y-68194710D01*
X163925575Y-68051626D01*
X163925575Y-67910073D01*
X163974800Y-67811623D01*
X163980055Y-67797891D01*
X163982129Y-67768701D01*
X163972875Y-67740940D01*
X163953702Y-67718832D01*
X163927527Y-67705745D01*
X163898337Y-67703671D01*
X163870576Y-67712924D01*
X163848469Y-67732098D01*
X163840636Y-67744541D01*
X163783493Y-67858827D01*
X163778238Y-67872559D01*
X163778047Y-67875246D01*
X163777016Y-67877736D01*
X163775575Y-67892368D01*
X163642242Y-67892368D01*
X163642242Y-66734878D01*
X164062731Y-66734878D01*
X164062731Y-66764142D01*
X164073930Y-66791178D01*
X164094622Y-66811870D01*
X164121658Y-66823069D01*
X164136290Y-66824510D01*
X164518433Y-66824510D01*
X164518433Y-67206653D01*
X164519874Y-67221285D01*
X164531073Y-67248321D01*
X164551765Y-67269013D01*
X164578801Y-67280212D01*
X164608065Y-67280212D01*
X164635101Y-67269013D01*
X164655793Y-67248321D01*
X164666992Y-67221285D01*
X164668433Y-67206653D01*
X164668433Y-66824510D01*
X165050575Y-66824510D01*
X165065207Y-66823069D01*
X165092243Y-66811870D01*
X165112935Y-66791178D01*
X165124134Y-66764142D01*
X165124134Y-66734878D01*
X165112935Y-66707842D01*
X165092243Y-66687150D01*
X165065207Y-66675951D01*
X165050575Y-66674510D01*
X164668433Y-66674510D01*
X164668433Y-66292368D01*
X172246161Y-66292368D01*
X172246161Y-67206653D01*
X172247602Y-67221285D01*
X172258801Y-67248321D01*
X172279493Y-67269013D01*
X172306529Y-67280212D01*
X172335793Y-67280212D01*
X172362829Y-67269013D01*
X172383521Y-67248321D01*
X172394720Y-67221285D01*
X172396161Y-67206653D01*
X172396161Y-66292368D01*
X172394720Y-66277736D01*
X172383521Y-66250700D01*
X172362829Y-66230008D01*
X172335793Y-66218809D01*
X172306529Y-66218809D01*
X172279493Y-66230008D01*
X172258801Y-66250700D01*
X172247602Y-66277736D01*
X172246161Y-66292368D01*
X164668433Y-66292368D01*
X164666992Y-66277736D01*
X164655793Y-66250700D01*
X164635101Y-66230008D01*
X164608065Y-66218809D01*
X164578801Y-66218809D01*
X164551765Y-66230008D01*
X164531073Y-66250700D01*
X164519874Y-66277736D01*
X164518433Y-66292368D01*
X164518433Y-66674510D01*
X164136290Y-66674510D01*
X164121658Y-66675951D01*
X164094622Y-66687150D01*
X164073930Y-66707842D01*
X164062731Y-66734878D01*
X163642242Y-66734878D01*
X163642242Y-66085476D01*
X172986636Y-66085476D01*
X172986636Y-71470689D01*
G37*
M02*
