%TF.GenerationSoftware,KiCad,Pcbnew,8.0.7*%
%TF.CreationDate,2025-01-13T18:22:05-05:00*%
%TF.ProjectId,panel1,70616e65-6c31-42e6-9b69-6361645f7063,rev?*%
%TF.SameCoordinates,Original*%
%TF.FileFunction,Legend,Bot*%
%TF.FilePolarity,Positive*%
%FSLAX46Y46*%
G04 Gerber Fmt 4.6, Leading zero omitted, Abs format (unit mm)*
G04 Created by KiCad (PCBNEW 8.0.7) date 2025-01-13 18:22:05*
%MOMM*%
%LPD*%
G01*
G04 APERTURE LIST*
%ADD10C,0.150000*%
G04 APERTURE END LIST*
D10*
X136404762Y-78533967D02*
X136500000Y-78581586D01*
X136500000Y-78581586D02*
X136690476Y-78581586D01*
X136690476Y-78581586D02*
X136785714Y-78533967D01*
X136785714Y-78533967D02*
X136833333Y-78486347D01*
X136833333Y-78486347D02*
X136880952Y-78391109D01*
X136880952Y-78391109D02*
X136880952Y-78105395D01*
X136880952Y-78105395D02*
X136833333Y-78010157D01*
X136833333Y-78010157D02*
X136785714Y-77962538D01*
X136785714Y-77962538D02*
X136690476Y-77914919D01*
X136690476Y-77914919D02*
X136500000Y-77914919D01*
X136500000Y-77914919D02*
X136404762Y-77962538D01*
X135976190Y-77914919D02*
X135976190Y-78581586D01*
X135976190Y-78010157D02*
X135928571Y-77962538D01*
X135928571Y-77962538D02*
X135833333Y-77914919D01*
X135833333Y-77914919D02*
X135690476Y-77914919D01*
X135690476Y-77914919D02*
X135595238Y-77962538D01*
X135595238Y-77962538D02*
X135547619Y-78057776D01*
X135547619Y-78057776D02*
X135547619Y-78581586D01*
X134642857Y-78533967D02*
X134738095Y-78581586D01*
X134738095Y-78581586D02*
X134928571Y-78581586D01*
X134928571Y-78581586D02*
X135023809Y-78533967D01*
X135023809Y-78533967D02*
X135071428Y-78486347D01*
X135071428Y-78486347D02*
X135119047Y-78391109D01*
X135119047Y-78391109D02*
X135119047Y-78105395D01*
X135119047Y-78105395D02*
X135071428Y-78010157D01*
X135071428Y-78010157D02*
X135023809Y-77962538D01*
X135023809Y-77962538D02*
X134928571Y-77914919D01*
X134928571Y-77914919D02*
X134738095Y-77914919D01*
X134738095Y-77914919D02*
X134642857Y-77962538D01*
X134309523Y-77914919D02*
X134071428Y-78581586D01*
X134071428Y-78581586D02*
X133833333Y-77914919D01*
X133023809Y-78581586D02*
X133023809Y-78057776D01*
X133023809Y-78057776D02*
X133071428Y-77962538D01*
X133071428Y-77962538D02*
X133166666Y-77914919D01*
X133166666Y-77914919D02*
X133357142Y-77914919D01*
X133357142Y-77914919D02*
X133452380Y-77962538D01*
X133023809Y-78533967D02*
X133119047Y-78581586D01*
X133119047Y-78581586D02*
X133357142Y-78581586D01*
X133357142Y-78581586D02*
X133452380Y-78533967D01*
X133452380Y-78533967D02*
X133499999Y-78438728D01*
X133499999Y-78438728D02*
X133499999Y-78343490D01*
X133499999Y-78343490D02*
X133452380Y-78248252D01*
X133452380Y-78248252D02*
X133357142Y-78200633D01*
X133357142Y-78200633D02*
X133119047Y-78200633D01*
X133119047Y-78200633D02*
X133023809Y-78153014D01*
X132119047Y-78533967D02*
X132214285Y-78581586D01*
X132214285Y-78581586D02*
X132404761Y-78581586D01*
X132404761Y-78581586D02*
X132499999Y-78533967D01*
X132499999Y-78533967D02*
X132547618Y-78486347D01*
X132547618Y-78486347D02*
X132595237Y-78391109D01*
X132595237Y-78391109D02*
X132595237Y-78105395D01*
X132595237Y-78105395D02*
X132547618Y-78010157D01*
X132547618Y-78010157D02*
X132499999Y-77962538D01*
X132499999Y-77962538D02*
X132404761Y-77914919D01*
X132404761Y-77914919D02*
X132214285Y-77914919D01*
X132214285Y-77914919D02*
X132119047Y-77962538D01*
X138917573Y-75177706D02*
X138917573Y-75891991D01*
X138917573Y-75891991D02*
X138965192Y-76034848D01*
X138965192Y-76034848D02*
X139060430Y-76130087D01*
X139060430Y-76130087D02*
X139203287Y-76177706D01*
X139203287Y-76177706D02*
X139298525Y-76177706D01*
X137965192Y-76177706D02*
X138441382Y-76177706D01*
X138441382Y-76177706D02*
X138441382Y-75177706D01*
X137060430Y-76082467D02*
X137108049Y-76130087D01*
X137108049Y-76130087D02*
X137250906Y-76177706D01*
X137250906Y-76177706D02*
X137346144Y-76177706D01*
X137346144Y-76177706D02*
X137489001Y-76130087D01*
X137489001Y-76130087D02*
X137584239Y-76034848D01*
X137584239Y-76034848D02*
X137631858Y-75939610D01*
X137631858Y-75939610D02*
X137679477Y-75749134D01*
X137679477Y-75749134D02*
X137679477Y-75606277D01*
X137679477Y-75606277D02*
X137631858Y-75415801D01*
X137631858Y-75415801D02*
X137584239Y-75320563D01*
X137584239Y-75320563D02*
X137489001Y-75225325D01*
X137489001Y-75225325D02*
X137346144Y-75177706D01*
X137346144Y-75177706D02*
X137250906Y-75177706D01*
X137250906Y-75177706D02*
X137108049Y-75225325D01*
X137108049Y-75225325D02*
X137060430Y-75272944D01*
X136346144Y-75177706D02*
X136346144Y-75891991D01*
X136346144Y-75891991D02*
X136393763Y-76034848D01*
X136393763Y-76034848D02*
X136489001Y-76130087D01*
X136489001Y-76130087D02*
X136631858Y-76177706D01*
X136631858Y-76177706D02*
X136727096Y-76177706D01*
X135393763Y-76177706D02*
X135869953Y-76177706D01*
X135869953Y-76177706D02*
X135869953Y-75177706D01*
X134489001Y-76082467D02*
X134536620Y-76130087D01*
X134536620Y-76130087D02*
X134679477Y-76177706D01*
X134679477Y-76177706D02*
X134774715Y-76177706D01*
X134774715Y-76177706D02*
X134917572Y-76130087D01*
X134917572Y-76130087D02*
X135012810Y-76034848D01*
X135012810Y-76034848D02*
X135060429Y-75939610D01*
X135060429Y-75939610D02*
X135108048Y-75749134D01*
X135108048Y-75749134D02*
X135108048Y-75606277D01*
X135108048Y-75606277D02*
X135060429Y-75415801D01*
X135060429Y-75415801D02*
X135012810Y-75320563D01*
X135012810Y-75320563D02*
X134917572Y-75225325D01*
X134917572Y-75225325D02*
X134774715Y-75177706D01*
X134774715Y-75177706D02*
X134679477Y-75177706D01*
X134679477Y-75177706D02*
X134536620Y-75225325D01*
X134536620Y-75225325D02*
X134489001Y-75272944D01*
X133774715Y-75177706D02*
X133774715Y-75891991D01*
X133774715Y-75891991D02*
X133822334Y-76034848D01*
X133822334Y-76034848D02*
X133917572Y-76130087D01*
X133917572Y-76130087D02*
X134060429Y-76177706D01*
X134060429Y-76177706D02*
X134155667Y-76177706D01*
X132822334Y-76177706D02*
X133298524Y-76177706D01*
X133298524Y-76177706D02*
X133298524Y-75177706D01*
X131917572Y-76082467D02*
X131965191Y-76130087D01*
X131965191Y-76130087D02*
X132108048Y-76177706D01*
X132108048Y-76177706D02*
X132203286Y-76177706D01*
X132203286Y-76177706D02*
X132346143Y-76130087D01*
X132346143Y-76130087D02*
X132441381Y-76034848D01*
X132441381Y-76034848D02*
X132489000Y-75939610D01*
X132489000Y-75939610D02*
X132536619Y-75749134D01*
X132536619Y-75749134D02*
X132536619Y-75606277D01*
X132536619Y-75606277D02*
X132489000Y-75415801D01*
X132489000Y-75415801D02*
X132441381Y-75320563D01*
X132441381Y-75320563D02*
X132346143Y-75225325D01*
X132346143Y-75225325D02*
X132203286Y-75177706D01*
X132203286Y-75177706D02*
X132108048Y-75177706D01*
X132108048Y-75177706D02*
X131965191Y-75225325D01*
X131965191Y-75225325D02*
X131917572Y-75272944D01*
X131203286Y-75177706D02*
X131203286Y-75891991D01*
X131203286Y-75891991D02*
X131250905Y-76034848D01*
X131250905Y-76034848D02*
X131346143Y-76130087D01*
X131346143Y-76130087D02*
X131489000Y-76177706D01*
X131489000Y-76177706D02*
X131584238Y-76177706D01*
X130250905Y-76177706D02*
X130727095Y-76177706D01*
X130727095Y-76177706D02*
X130727095Y-75177706D01*
X129346143Y-76082467D02*
X129393762Y-76130087D01*
X129393762Y-76130087D02*
X129536619Y-76177706D01*
X129536619Y-76177706D02*
X129631857Y-76177706D01*
X129631857Y-76177706D02*
X129774714Y-76130087D01*
X129774714Y-76130087D02*
X129869952Y-76034848D01*
X129869952Y-76034848D02*
X129917571Y-75939610D01*
X129917571Y-75939610D02*
X129965190Y-75749134D01*
X129965190Y-75749134D02*
X129965190Y-75606277D01*
X129965190Y-75606277D02*
X129917571Y-75415801D01*
X129917571Y-75415801D02*
X129869952Y-75320563D01*
X129869952Y-75320563D02*
X129774714Y-75225325D01*
X129774714Y-75225325D02*
X129631857Y-75177706D01*
X129631857Y-75177706D02*
X129536619Y-75177706D01*
X129536619Y-75177706D02*
X129393762Y-75225325D01*
X129393762Y-75225325D02*
X129346143Y-75272944D01*
M02*
